name 900006_30ik_lsw.mot
datacolumns 165
datarows 4
range 1.20000000 1.22500000
cursor 1.0 1.0 0.0
keys m_key
wrap
enforce_loops no
enforce_constraints no
calc_derivatives 0.008333
event_color 1.000000 0.000000 1.000000
endheader

                time	          calcn_r_tx	          calcn_r_ty	          calcn_r_tz	          calcn_r_r1	          calcn_r_r2	          calcn_r_r3	          calcn_l_tx	          calcn_l_ty	          calcn_l_tz	          calcn_l_r1	          calcn_l_r2	          calcn_l_r3	           pelvis_tz	           pelvis_tx	           pelvis_ty	         pelvis_tilt	         pelvis_list	     pelvis_rotation	       hip_flexion_r	     hip_adduction_r	      hip_rotation_r	        knee_angle_r	       ankle_angle_r	    subtalar_angle_r	         mtp_angle_r	       hip_flexion_l	     hip_adduction_l	      hip_rotation_l	        knee_angle_l	       ankle_angle_l	    subtalar_angle_l	         mtp_angle_l	    lumbar_extension	      lumbar_bending	     lumbar_rotation	     ground_force_px	     ground_force_py	     ground_force_pz	     ground_force_vx	     ground_force_vy	     ground_force_vz	     ground_force_px	     ground_force_py	     ground_force_pz	     ground_force_vx	     ground_force_vy	     ground_force_vz	     ground_torque_x	     ground_torque_y	     ground_torque_z	     ground_torque_x	     ground_torque_y	     ground_torque_z	           midhip_px	           midhip_py	           midhip_pz	            hip_r_px	            hip_r_py	            hip_r_pz	            hip_l_px	            hip_l_py	            hip_l_pz	           knee_r_px	           knee_r_py	           knee_r_pz	           knee_l_px	           knee_l_py	           knee_l_pz	          ankle_r_px	          ankle_r_py	          ankle_r_pz	          ankle_l_px	          ankle_l_py	          ankle_l_pz	          midasis_px	          midasis_py	          midasis_pz	           asis_r_px	           asis_r_py	           asis_r_pz	           asis_l_px	           asis_l_py	           asis_l_pz	           psis_r_px	           psis_r_py	           psis_r_pz	           psis_l_px	           psis_l_py	           psis_l_pz	     epicondLat_r_px	     epicondLat_r_py	     epicondLat_r_pz	     epicondLat_l_px	     epicondLat_l_py	     epicondLat_l_pz	     epicondMed_r_px	     epicondMed_r_py	     epicondMed_r_pz	     epicondMed_l_px	     epicondMed_l_py	     epicondMed_l_pz	   malleolusLat_r_px	   malleolusLat_r_py	   malleolusLat_r_pz	   malleolusLat_l_px	   malleolusLat_l_py	   malleolusLat_l_pz	  malleolusMedv_r_px	  malleolusMedv_r_py	  malleolusMedv_r_pz	  malleolusMedv_l_px	  malleolusMedv_l_py	  malleolusMedv_l_pz	             neck_px	             neck_py	             neck_pz	    subclavicle_r_px	    subclavicle_r_py	    subclavicle_r_pz	    subclavicle_l_px	    subclavicle_l_py	    subclavicle_l_pz	     sternalnotch_px	     sternalnotch_py	     sternalnotch_pz	   xyphoidprocess_px	   xyphoidprocess_py	   xyphoidprocess_pz	      thighwand_r_px	      thighwand_r_py	      thighwand_r_pz	      thighwand_l_px	      thighwand_l_py	      thighwand_l_pz	      upperleg1_r_px	      upperleg1_r_py	      upperleg1_r_pz	      upperleg1_l_px	      upperleg1_l_py	      upperleg1_l_pz	      upperleg2_r_px	      upperleg2_r_py	      upperleg2_r_pz	      upperleg2_l_px	      upperleg2_l_py	      upperleg2_l_pz	      shankwand_r_px	      shankwand_r_py	      shankwand_r_pz	      shankwand_l_px	      shankwand_l_py	      shankwand_l_pz	      lowerleg1_r_px	      lowerleg1_r_py	      lowerleg1_r_pz	      lowerleg1_l_px	      lowerleg1_l_py	      lowerleg1_l_pz	            toe_r_px	            toe_r_py	            toe_r_pz	            toe_l_px	            toe_l_py	            toe_l_pz	
          1.20000000	          1.30078701	          0.03486858	         -0.15012904	          1.07533077	         -0.55579986	         -1.95402372	          1.22742072	          0.12316098	         -0.27447748	         -2.03239273	          3.94008888	        -25.98010470	         -0.22161405	          1.44810581	          0.83167106	          0.84030696	         -0.73284477	          1.25932970	          1.60537768	          2.49271763	         -0.93982697	        -10.11903262	          5.90018399	          0.00000000	          0.00000000	         16.36113843	         -0.07433940	         -4.64518916	        -51.78348054	          8.70261441	          0.00000000	          0.00000000	        -10.69721164	          3.02291411	          0.58785627	          1.45011972	          0.00000000	         -0.15283328	        -18.55698350	        346.41166943	        -17.68892816	          0.92073454	          0.00000000	         -0.23950061	          0.00000000	          0.00000000	         -0.00000000	          0.00000000	          0.91605392	          0.00000000	          0.00000000	         -0.00000000	          0.00000000	          1.41280881	          0.77285536	         -0.22297206	          1.40648908	          0.76976619	         -0.16597731	          1.41912870	          0.77594425	         -0.27996677	          1.36040852	          0.42301957	         -0.15077171	          1.46425562	          0.42566799	         -0.29882292	          1.34779854	          0.06622503	         -0.15986589	          1.28631563	          0.12654523	         -0.27569921	          1.44961676	          0.84392593	         -0.21586207	          1.45304001	          0.84377039	         -0.10412033	          1.44619341	          0.84408187	         -0.32760343	          1.27461962	          0.87820785	         -0.17973103	          1.27192792	          0.87686849	         -0.23406996	          1.39469097	          0.42140434	         -0.09140094	          1.47612773	          0.41644153	         -0.35615053	          1.36910604	          0.42112759	         -0.20879499	          1.49836503	          0.41902936	         -0.23702512	          1.34333480	          0.06555079	         -0.12263855	          1.27558817	          0.13080486	         -0.31032069	          1.34739751	          0.06302659	         -0.19337020	          1.28542353	          0.12984547	         -0.24177573	          1.34723039	          1.27271508	         -0.20184325	          1.44813416	          1.18872954	         -0.16005042	          1.44470042	          1.19448935	         -0.26508911	          1.44347149	          1.19185251	         -0.21554439	          1.43934866	          1.09006099	         -0.22351389	          1.51188717	          0.55838008	         -0.12795308	          1.55169110	          0.59145940	         -0.37372159	          1.46143938	          0.59623937	         -0.08807858	          1.52587296	          0.62944295	         -0.30529986	          1.44942580	          0.54070504	         -0.09241197	          1.53277543	          0.57062804	         -0.29864009	          1.47975364	          0.17444002	         -0.13482043	          1.31974643	          0.21994000	         -0.40473689	          1.40119189	          0.16502548	         -0.14899848	          1.32440333	          0.21264072	         -0.32467583	          1.43100253	          0.04715282	         -0.14927271	          1.35301230	          0.07298896	         -0.28105038	
          1.20833333	          1.30048614	          0.03498393	         -0.15076179	          1.06798069	         -0.74666349	         -2.19279540	          1.26101560	          0.11357735	         -0.27426121	         -2.01824246	          4.50703742	        -22.60337340	         -0.22130561	          1.45767219	          0.83168651	          0.72020733	         -0.36576039	          1.29768815	          0.64374811	          2.16831409	         -1.07992738	         -9.54950498	          6.17459987	          0.00000000	          0.00000000	         17.82709281	          0.05871384	         -5.35513976	        -50.16348830	          9.09904858	          0.00000000	          0.00000000	        -10.68658345	          2.76275466	          0.71554631	          1.45510423	          0.00000000	         -0.15320375	        -16.94546585	        344.84302300	        -18.06384074	          0.92519175	          0.00000000	         -0.23888394	         -0.00000000	         -0.00000000	          0.00000000	          0.00000000	          0.94919936	          0.00000000	          0.00000000	          0.00000000	          0.00000000	          1.42286165	          0.77335621	         -0.22303896	          1.41650042	          0.76999537	         -0.16606336	          1.42922296	          0.77671680	         -0.28001450	          1.36340755	          0.42387907	         -0.15077803	          1.48078995	          0.42812694	         -0.29961259	          1.34805280	          0.06656903	         -0.16000507	          1.31837226	          0.11954705	         -0.27689239	          1.45987290	          0.84421667	         -0.21554856	          1.46325868	          0.84350209	         -0.10391634	          1.45648698	          0.84493165	         -0.32718024	          1.28515556	          0.87884981	         -0.17982784	          1.28217307	          0.87765525	         -0.23408711	          1.39790874	          0.42131321	         -0.09140581	          1.49349020	          0.41857723	         -0.35680184	          1.37237942	          0.42168591	         -0.20864172	          1.51621555	          0.42108843	         -0.23979127	          1.34368206	          0.06590726	         -0.12276619	          1.30704961	          0.12359508	         -0.31135224	          1.34748362	          0.06341953	         -0.19351685	          1.31739376	          0.12240546	         -0.24287013	          1.35890453	          1.27282626	         -0.20213863	          1.45966674	          1.18861582	         -0.16043008	          1.45596702	          1.19446075	         -0.26538684	          1.45486370	          1.19179050	         -0.21587493	          1.45048383	          1.09001490	         -0.22390931	          1.51771658	          0.55627788	         -0.12757091	          1.56509636	          0.59503267	         -0.37540023	          1.46768847	          0.59506597	         -0.08784240	          1.53906522	          0.63244007	         -0.30661835	          1.45462104	          0.53988695	         -0.09213258	          1.54715187	          0.57382344	         -0.30049081	          1.48104614	          0.17363822	         -0.13522939	          1.34586658	          0.21561405	         -0.40537303	          1.40219738	          0.16498431	         -0.14924739	          1.35138486	          0.20753795	         -0.32534706	          1.43113649	          0.04718361	         -0.14955009	          1.38753770	          0.06990566	         -0.28262425	
          1.21666667	          1.30078343	          0.03532883	         -0.15192411	          1.05759726	         -1.18108005	         -2.42127141	          1.29351117	          0.10504653	         -0.27508552	         -2.05317831	          4.55720657	        -19.71579943	         -0.22114330	          1.46774545	          0.83149445	          0.60983687	         -0.22882629	          1.10598663	         -0.31332975	          2.06931300	         -1.25061264	         -8.94144532	          6.40603687	          0.00000000	          0.00000000	         19.08774050	          0.12013907	         -5.68276496	        -48.52784567	          9.19938006	          0.00000000	          0.00000000	        -10.70960502	          2.53206691	          0.83438950	          1.45941270	          0.00000000	         -0.15351746	        -15.00725508	        344.70606266	        -18.84306278	          0.93030485	          0.00000000	         -0.23835623	          0.00000000	          0.00000000	         -0.00000000	          0.00000000	          0.96337882	          0.00000000	          0.00000000	         -0.00000000	          0.00000000	          1.43290262	          0.77361508	         -0.22311764	          1.42653615	          0.77003976	         -0.16615522	          1.43926907	          0.77719022	         -0.28008006	          1.36663553	          0.42473752	         -0.15075481	          1.49736956	          0.43000440	         -0.30020567	          1.34836382	          0.06696914	         -0.16011791	          1.35093792	          0.11271381	         -0.27848214	          1.47009953	          0.84430748	         -0.21532961	          1.47349672	          0.84313499	         -0.10380569	          1.46670212	          0.84548033	         -0.32685292	          1.29567372	          0.87924601	         -0.18001389	          1.29263803	          0.87809693	         -0.23414083	          1.40120847	          0.42123358	         -0.09139102	          1.51043370	          0.42055727	         -0.35729701	          1.37597859	          0.42223063	         -0.20855043	          1.53375591	          0.42311284	         -0.24186650	          1.34405396	          0.06632405	         -0.12287150	          1.33911641	          0.11648887	         -0.31280883	          1.34764457	          0.06384749	         -0.19363069	          1.34993683	          0.11517447	         -0.24438655	          1.37048635	          1.27280084	         -0.20251532	          1.47115148	          1.18835346	         -0.16089328	          1.46712398	          1.19418836	         -0.26577240	          1.46617551	          1.19153018	         -0.21628957	          1.46151345	          1.08976494	         -0.22429140	          1.52364473	          0.55416733	         -0.12711770	          1.57821774	          0.59820493	         -0.37688185	          1.47397812	          0.59395229	         -0.08756884	          1.55177231	          0.63507131	         -0.30789981	          1.45989617	          0.53907514	         -0.09183261	          1.56110469	          0.57676001	         -0.30209244	          1.48238935	          0.17279977	         -0.13551115	          1.37252676	          0.21119070	         -0.40631513	          1.40328170	          0.16491666	         -0.14941829	          1.37883170	          0.20235749	         -0.32644506	          1.43124591	          0.04722571	         -0.14978067	          1.42248530	          0.06695374	         -0.28441684	
          1.22500000	          1.30047003	          0.03587892	         -0.15224551	          0.94812455	         -1.63502276	         -2.79113598	          1.32724077	          0.09654144	         -0.27683154	         -2.01376299	          4.73728360	        -16.75473824	         -0.22119692	          1.47861400	          0.83105807	          0.43129706	         -0.07404995	          0.97125454	         -1.25648474	          1.86965143	         -1.49938933	         -8.44487619	          6.66446480	          0.00000000	          0.00000000	         20.28882014	          0.11249193	         -6.04368955	        -46.61375481	          9.21950680	          0.00000000	          0.00000000	        -10.76557850	          2.26448139	          0.97448102	          1.46304955	          0.00000000	         -0.15381627	        -12.85634581	        346.05498553	        -19.84013767	          0.93593181	          0.00000000	         -0.23792728	         -0.00000000	         -0.00000000	          0.00000000	          0.00000000	          0.97201926	          0.00000000	          0.00000000	          0.00000000	          0.00000000	          1.44291685	          0.77360797	         -0.22319478	          1.43658615	          0.76987705	         -0.16623838	          1.44924741	          0.77733879	         -0.28015135	          1.37024085	          0.42556373	         -0.15073579	          1.51406714	          0.43119699	         -0.30058234	          1.34871610	          0.06741504	         -0.16021686	          1.38390990	          0.10620510	         -0.28043965	          1.48030305	          0.84417597	         -0.21520082	          1.48376090	          0.84265046	         -0.10377598	          1.47684491	          0.84570170	         -0.32662508	          1.30617344	          0.87938682	         -0.18027919	          1.30328232	          0.87819989	         -0.23425930	          1.40463792	          0.42116988	         -0.09137926	          1.52696956	          0.42236417	         -0.35763194	          1.38005854	          0.42271921	         -0.20857846	          1.55095479	          0.42510465	         -0.24303813	          1.34443355	          0.06679370	         -0.12296695	          1.37171744	          0.10964559	         -0.31467442	          1.34785959	          0.06433184	         -0.19372856	          1.38295907	          0.10830041	         -0.24630499	          1.38199019	          1.27264452	         -0.20296314	          1.48260301	          1.18794464	         -0.16146416	          1.47819811	          1.19367557	         -0.26627656	          1.47742799	          1.19107433	         -0.21681612	          1.47245987	          1.08931402	         -0.22468952	          1.52968921	          0.55205269	         -0.12661291	          1.59109760	          0.60090819	         -0.37806902	          1.48037832	          0.59292033	         -0.08732830	          1.56400264	          0.63728547	         -0.30910930	          1.46534767	          0.53829674	         -0.09157512	          1.57463814	          0.57938737	         -0.30335191	          1.48376696	          0.17191050	         -0.13567922	          1.39975246	          0.20675937	         -0.40756423	          1.40445372	          0.16483172	         -0.14951117	          1.40676723	          0.19723381	         -0.32794168	          1.43133428	          0.04727852	         -0.14996915	          1.45778831	          0.06426392	         -0.28647754	
